<?xml version="1.0" encoding="utf-8"?>
<!-- Generator: Adobe Illustrator 16.0.0, SVG Export Plug-In . SVG Version: 6.00 Build 0)  -->
<!DOCTYPE svg PUBLIC "-//W3C//DTD SVG 1.1//EN" "http://www.w3.org/Graphics/SVG/1.1/DTD/svg11.dtd">
<svg version="1.1" id="Calque_1" xmlns="http://www.w3.org/2000/svg" xmlns:xlink="http://www.w3.org/1999/xlink" x="0px" y="0px"
	 width="102px" height="125.723px" viewBox="35.5 79.361 102 125.723" enable-background="new 35.5 79.361 102 125.723"
	 xml:space="preserve">
<g>
	<path fill="#E94F44" d="M61.5,105.086V85.424c0-5.4,3.824-7.609,8.497-4.911l59.006,34.118c4.673,2.703,8.497,9.33,8.497,14.731
		v39.312c0,5.399-3.824,12.029-8.497,14.729l-34,19.652c-4.673,2.701-12.321,2.701-16.994,0l-34.012-19.65
		c-4.673-2.701-8.497-9.329-8.497-14.73l0.015-68.771c0-5.397,3.824-7.609,8.497-4.911L61.5,105.086z"/>
</g>
<g>
	<path fill="#FFFFFF" d="M60.752,159.434h-2.148l-0.168-1.636c-2.021,1.245-4.332,2.062-7.083,2.062
		c-3.689,0-5.409-2.094-5.409-5.844c0-4.428,2.02-5.795,6.139-5.795h6.185v-4.082c0-2.886-1.506-3.83-4.938-3.83
		c-2.061,0-4.25,0.309-6.18,0.688l-0.391-2.104c1.676-0.473,4.293-0.812,6.439-0.812c5.405,0,7.555,2.146,7.555,6.062
		L60.752,159.434L60.752,159.434z M58.268,150.454h-6.101c-2.875,0-3.733,0.857-3.733,3.605c0,2.444,0.517,3.562,3.432,3.562
		c2.062,0,4.51-0.812,6.401-2.144V150.454L58.268,150.454z"/>
	<path fill="#FFFFFF" d="M74.036,159.044c-1.209,0.476-2.882,0.814-4.382,0.814c-3.305,0-4.721-1.203-4.721-4.516v-21.777
		l2.483-0.349v5.286h6.396l-0.256,2.156H67.42v14.429c0,1.851,0.258,2.626,2.405,2.626c1.163,0,2.491-0.222,3.731-0.607
		L74.036,159.044z"/>
	<path fill="#FFFFFF" d="M99.956,153.417c0,3.818-1.716,6.441-6.431,6.441c-2.194,0-4.039-0.213-6.438-0.688v8.726l-2.493,0.344
		v-29.733h2.277l0.128,1.979c2.103-1.592,4.72-2.402,7.035-2.402c4.077,0,5.922,2.01,5.922,5.8V153.417z M87.087,156.898
		c2.265,0.472,4.501,0.724,6.521,0.724c2.748,0,3.863-1.368,3.863-4.205v-9.537c0-2.402-0.777-3.568-3.604-3.568
		c-2.577,0-4.805,1.082-6.777,2.66L87.087,156.898L87.087,156.898z"/>
	<path fill="#FFFFFF" d="M111.79,159.434v-29.479l2.489-0.343v29.818L111.79,159.434L111.79,159.434z M126.729,138.506
		l-8.328,10.311l8.67,10.615h-3.176l-8.498-10.615l8.237-10.312L126.729,138.506L126.729,138.506z"/>
	<path fill="#FFFFFF" d="M76.955,138.852"/>
	<g>
		<path fill="#FFFFFF" d="M76.955,159.434v-20.582l2.486-0.347v20.929H76.955z"/>
		<path fill="#FFFFFF" d="M79.441,138.506"/>
		<polygon fill="#FFFFFF" points="79.441,132.065 76.955,132.402 76.955,134.904 79.441,134.557 		"/>
	</g>
	<g>
		<path fill="#FFFFFF" d="M104.389,159.434l0.002-20.582l2.483-0.347v20.929H104.389z"/>
		<path fill="#FFFFFF" d="M106.874,138.506"/>
		<polygon fill="#FFFFFF" points="106.874,132.065 104.391,132.402 104.391,134.904 106.874,134.557 		"/>
	</g>
</g>
</svg>
